<svg version="1.2" preserveAspectRatio="xMidYMid" fill-rule="evenodd" stroke-width="28.222" stroke-linejoin="round" xmlns="http://www.w3.org/2000/svg" xmlns:ooo="http://xml.openoffice.org/svg/export" xmlns:xlink="http://www.w3.org/1999/xlink" xmlns:presentation="http://sun.com/xmlns/staroffice/presentation" xmlns:smil="http://www.w3.org/2001/SMIL20/" xmlns:anim="urn:oasis:names:tc:opendocument:xmlns:animation:1.0" xmlns:svg="urn:oasis:names:tc:opendocument:xmlns:svg-compatible:1.0" xml:space="preserve" viewBox="1250 4250 18501 18501">
 <defs class="ClipPathGroup">
  <clipPath id="presentation_clip_path" clipPathUnits="userSpaceOnUse">
   <rect x="0" y="0" width="21000" height="28000"/>
  </clipPath>
  <clipPath id="presentation_clip_path_shrink" clipPathUnits="userSpaceOnUse">
   <rect x="21" y="28" width="20958" height="27944"/>
  </clipPath>
 </defs>
 <defs class="TextShapeIndex">
  <g ooo:slide="id1" ooo:id-list="id3 id4 id5 id6 id7 id8 id9"/>
 </defs>
 <defs class="EmbeddedBulletChars">
  <g id="bullet-char-template-57356" transform="scale(0.00048828125,-0.00048828125)">
   <path d="M 580,1141 L 1163,571 580,0 -4,571 580,1141 Z"/>
  </g>
  <g id="bullet-char-template-57354" transform="scale(0.00048828125,-0.00048828125)">
   <path d="M 8,1128 L 1137,1128 1137,0 8,0 8,1128 Z"/>
  </g>
  <g id="bullet-char-template-10146" transform="scale(0.00048828125,-0.00048828125)">
   <path d="M 174,0 L 602,739 174,1481 1456,739 174,0 Z M 1358,739 L 309,1346 659,739 1358,739 Z"/>
  </g>
  <g id="bullet-char-template-10132" transform="scale(0.00048828125,-0.00048828125)">
   <path d="M 2015,739 L 1276,0 717,0 1260,543 174,543 174,936 1260,936 717,1481 1274,1481 2015,739 Z"/>
  </g>
  <g id="bullet-char-template-10007" transform="scale(0.00048828125,-0.00048828125)">
   <path d="M 0,-2 C -7,14 -16,27 -25,37 L 356,567 C 262,823 215,952 215,954 215,979 228,992 255,992 264,992 276,990 289,987 310,991 331,999 354,1012 L 381,999 492,748 772,1049 836,1024 860,1049 C 881,1039 901,1025 922,1006 886,937 835,863 770,784 769,783 710,716 594,584 L 774,223 C 774,196 753,168 711,139 L 727,119 C 717,90 699,76 672,76 641,76 570,178 457,381 L 164,-76 C 142,-110 111,-127 72,-127 30,-127 9,-110 8,-76 1,-67 -2,-52 -2,-32 -2,-23 -1,-13 0,-2 Z"/>
  </g>
  <g id="bullet-char-template-10004" transform="scale(0.00048828125,-0.00048828125)">
   <path d="M 285,-33 C 182,-33 111,30 74,156 52,228 41,333 41,471 41,549 55,616 82,672 116,743 169,778 240,778 293,778 328,747 346,684 L 369,508 C 377,444 397,411 428,410 L 1163,1116 C 1174,1127 1196,1133 1229,1133 1271,1133 1292,1118 1292,1087 L 1292,965 C 1292,929 1282,901 1262,881 L 442,47 C 390,-6 338,-33 285,-33 Z"/>
  </g>
  <g id="bullet-char-template-9679" transform="scale(0.00048828125,-0.00048828125)">
   <path d="M 813,0 C 632,0 489,54 383,161 276,268 223,411 223,592 223,773 276,916 383,1023 489,1130 632,1184 813,1184 992,1184 1136,1130 1245,1023 1353,916 1407,772 1407,592 1407,412 1353,268 1245,161 1136,54 992,0 813,0 Z"/>
  </g>
  <g id="bullet-char-template-8226" transform="scale(0.00048828125,-0.00048828125)">
   <path d="M 346,457 C 273,457 209,483 155,535 101,586 74,649 74,723 74,796 101,859 155,911 209,963 273,989 346,989 419,989 480,963 531,910 582,859 608,796 608,723 608,648 583,586 532,535 482,483 420,457 346,457 Z"/>
  </g>
  <g id="bullet-char-template-8211" transform="scale(0.00048828125,-0.00048828125)">
   <path d="M -4,459 L 1135,459 1135,606 -4,606 -4,459 Z"/>
  </g>
  <g id="bullet-char-template-61548" transform="scale(0.00048828125,-0.00048828125)">
   <path d="M 173,740 C 173,903 231,1043 346,1159 462,1274 601,1332 765,1332 928,1332 1067,1274 1183,1159 1299,1043 1357,903 1357,740 1357,577 1299,437 1183,322 1067,206 928,148 765,148 601,148 462,206 346,322 231,437 173,577 173,740 Z"/>
  </g>
 </defs>
 <g>
  <g id="id2" class="Master_Slide">
   <g id="bg-id2" class="Background"/>
   <g id="bo-id2" class="BackgroundObjects"/>
  </g>
 </g>
 <g class="SlideGroup">
  <g>
   <g id="container-id1">
    <g id="id1" class="Slide" clip-path="url(#presentation_clip_path)">
     <g class="Page">
      <g class="com.sun.star.drawing.CustomShape">
       <g id="id3">
        <rect class="BoundingBox" stroke="none" fill="none" x="1250" y="4250" width="18502" height="18502"/>
        <path fill="rgb(128,0,128)" stroke="none" d="M 19751,13501 C 19751,15124 19324,16719 18512,18126 17700,19532 16532,20700 15126,21512 13719,22324 12124,22751 10501,22751 8877,22751 7282,22324 5875,21512 4469,20700 3301,19532 2489,18126 1677,16719 1250,15124 1250,13501 1250,11877 1677,10282 2489,8875 3301,7469 4469,6301 5875,5489 7282,4677 8877,4250 10500,4250 12124,4250 13719,4677 15126,5489 16532,6301 17700,7469 18512,8875 19324,10282 19751,11877 19751,13500 L 19751,13501 Z"/>
       </g>
      </g>
      <g class="com.sun.star.drawing.CustomShape">
       <g id="id4">
        <rect class="BoundingBox" stroke="none" fill="none" x="7299" y="9149" width="7127" height="8377"/>
        <path fill="rgb(255,255,255)" stroke="none" d="M 14425,13337 L 7299,17525 7299,9149 14425,13337 Z"/>
       </g>
      </g>
      <g class="Graphic">
       <g id="id5">
        <rect class="BoundingBox" stroke="none" fill="none" x="2332" y="10550" width="3419" height="3032"/>
        <path fill="rgb(216,216,216)" stroke="none" d="M 5607,12976 C 5607,13119 5490,13235 5348,13235 L 2758,13235 C 2616,13235 2499,13119 2499,12976 L 2499,11008 C 2499,10866 2616,10749 2758,10749 L 5348,10749 C 5490,10749 5607,10866 5607,11008 L 5607,12976 Z M 2706,11008 L 2706,12976 C 2706,13004 2731,13028 2758,13028 L 5348,13028 C 5375,13028 5400,13004 5400,12976 L 5400,11008 C 5400,10981 5375,10956 5348,10956 L 2758,10956 C 2731,10956 2706,10981 2706,11008 Z M 3224,11785 C 3053,11785 2914,11646 2914,11474 2914,11303 3053,11163 3224,11163 3396,11163 3535,11303 3535,11474 3535,11646 3396,11785 3224,11785 Z M 5192,12821 L 2914,12821 2914,12510 3431,11992 3690,12251 4519,11422 5192,12096 5192,12821 Z"/>
       </g>
      </g>
      <g class="com.sun.star.drawing.CustomShape">
       <g id="id6">
        <rect class="BoundingBox" stroke="none" fill="none" x="2259" y="10540" width="3583" height="2883"/>
        <path fill="none" stroke="rgb(255,140,0)" stroke-width="81" stroke-linejoin="round" stroke-linecap="round" d="M 4050,13381 L 2300,13381 2300,10581 5800,10581 5800,13381 4050,13381 Z"/>
       </g>
      </g>
      <g class="Graphic">
       <g id="id7">
        <rect class="BoundingBox" stroke="none" fill="none" x="6550" y="18200" width="3251" height="3251"/>
        <defs>
         <clipPath id="clip_path_1" clipPathUnits="userSpaceOnUse">
          <path d="M 6550,18200 L 9800,18200 9800,21450 6550,21450 6550,18200 Z"/>
         </clipPath>
        </defs>
        <g clip-path="url(#clip_path_1)">
         <path fill="rgb(216,216,216)" stroke="none" d="M 7545,18200 L 7497,18228 6962,18536 6914,18564 6886,18612 6578,19147 6550,19195 6550,19250 6550,19868 6550,19923 6578,19971 6886,20506 6914,20554 6962,20582 7497,20891 7545,20918 7600,20918 8218,20918 8273,20918 8321,20891 8645,20704 9391,21450 9800,21041 9054,20295 9241,19971 9268,19923 9268,19868 9268,19250 9268,19195 9241,19147 8932,18612 8904,18564 8856,18536 8321,18228 8273,18200 8218,18200 7600,18200 7545,18200 7545,18200 Z M 7656,18614 L 8162,18614 8601,18867 8854,19306 8854,19812 8601,20252 8162,20504 7656,20504 7217,20252 6964,19812 6964,19306 7217,18867 7656,18614 7656,18614 Z M 7336,19627 L 7157,19730 7388,20132 7790,20364 7893,20185 7540,19981 7336,19627 7336,19627 Z"/>
        </g>
       </g>
      </g>
      <g class="Graphic">
       <g id="id8">
        <rect class="BoundingBox" stroke="none" fill="none" x="14087" y="13837" width="3664" height="3664"/>
        <path fill="none" stroke="rgb(232,232,232)" stroke-width="300" stroke-linejoin="round" stroke-linecap="round" d="M 14508,14229 L 14508,17138 17401,17138"/>
        <path fill="none" stroke="rgb(232,232,232)" stroke-width="300" stroke-linejoin="round" stroke-linecap="round" d="M 15324,14536 L 15324,16018"/>
        <path fill="none" stroke="rgb(255,255,255)" stroke-width="300" stroke-linejoin="round" stroke-linecap="round" d="M 16069,15174 L 16069,16657"/>
        <path fill="none" stroke="rgb(232,232,232)" stroke-width="300" stroke-linejoin="round" stroke-linecap="round" d="M 16814,14749 L 16814,16231"/>
       </g>
      </g>
      <g class="Graphic">
       <g id="id9">
        <rect class="BoundingBox" stroke="none" fill="none" x="9900" y="5371" width="5501" height="5180"/>
        <path fill="none" stroke="rgb(255,255,255)" stroke-width="151" stroke-linejoin="round" d="M 12151,10011 C 12151,10073 12135,10135 12103,10189 12072,10243 12027,10288 11973,10319 11919,10351 11857,10367 11795,10367 11732,10367 11670,10351 11616,10319 11562,10288 11517,10243 11485,10189 11454,10135 11438,10073 11438,10011 11438,9948 11454,9886 11485,9832 11517,9778 11562,9733 11616,9701 11670,9670 11732,9653 11795,9653 11857,9653 11919,9670 11973,9701 12027,9733 12072,9778 12103,9832 12135,9886 12151,9948 12151,10011 Z"/>
        <path fill="none" stroke="rgb(255,255,255)" stroke-width="151" stroke-linejoin="round" d="M 11973,6089 C 11973,6151 11957,6213 11925,6268 11894,6322 11849,6367 11795,6398 11741,6429 11679,6446 11617,6446 11554,6446 11492,6429 11438,6398 11383,6367 11338,6322 11307,6268 11276,6213 11259,6151 11259,6089 11259,6027 11276,5965 11307,5910 11338,5856 11383,5811 11438,5780 11492,5748 11554,5732 11617,5732 11679,5732 11741,5748 11795,5780 11849,5811 11894,5856 11925,5910 11957,5965 11973,6027 11973,6089 L 11973,6089 Z"/>
        <path fill="none" stroke="rgb(255,255,255)" stroke-width="151" stroke-linejoin="round" d="M 15217,8406 C 15217,8469 15201,8531 15169,8585 15138,8639 15093,8684 15039,8715 14985,8747 14923,8763 14861,8763 14798,8763 14736,8747 14682,8715 14628,8684 14583,8639 14551,8585 14520,8531 14503,8469 14503,8406 14503,8344 14520,8282 14551,8228 14583,8173 14628,8128 14682,8097 14736,8066 14798,8049 14861,8049 14923,8049 14985,8066 15039,8097 15093,8128 15138,8173 15169,8228 15201,8282 15217,8344 15217,8406 Z"/>
        <path fill="none" stroke="rgb(255,255,255)" stroke-width="151" stroke-linejoin="round" d="M 14469,7426 C 14469,7472 14456,7519 14433,7559 14409,7600 14375,7634 14334,7658 14294,7681 14247,7693 14201,7693 14154,7693 14108,7681 14067,7658 14026,7634 13992,7600 13969,7559 13945,7519 13933,7472 13933,7426 13933,7379 13945,7333 13969,7292 13992,7251 14026,7217 14067,7194 14108,7170 14154,7158 14201,7158 14247,7158 14294,7170 14334,7194 14375,7217 14409,7251 14433,7292 14456,7333 14469,7379 14469,7426 Z"/>
        <path fill="none" stroke="rgb(255,255,255)" stroke-width="151" stroke-linejoin="round" d="M 13114,6499 C 13114,6546 13102,6592 13078,6633 13055,6673 13020,6707 12980,6731 12939,6754 12893,6767 12846,6767 12799,6767 12753,6754 12712,6731 12672,6707 12638,6673 12614,6633 12590,6592 12578,6546 12578,6499 12578,6452 12590,6406 12614,6365 12638,6325 12672,6290 12712,6267 12753,6243 12799,6231 12846,6231 12893,6231 12939,6243 12980,6267 13020,6290 13055,6325 13078,6365 13102,6406 13114,6452 13114,6499 Z"/>
        <path fill="none" stroke="rgb(255,255,255)" stroke-width="151" stroke-linejoin="round" d="M 12864,9547 C 12864,9578 12856,9609 12840,9636 12824,9663 12802,9686 12775,9701 12748,9717 12717,9725 12686,9725 12655,9725 12623,9717 12596,9701 12569,9686 12547,9663 12531,9636 12516,9609 12507,9578 12507,9547 12507,9516 12516,9485 12531,9457 12547,9430 12569,9408 12596,9393 12623,9377 12655,9368 12686,9368 12717,9368 12748,9377 12775,9393 12802,9408 12824,9430 12840,9457 12856,9485 12864,9516 12864,9547 Z"/>
        <path fill="none" stroke="rgb(255,255,255)" stroke-width="151" stroke-linejoin="round" d="M 12009,7409 C 12009,7440 12001,7471 11985,7498 11969,7525 11947,7547 11920,7563 11893,7579 11862,7587 11831,7587 11800,7587 11768,7579 11741,7563 11714,7547 11692,7525 11676,7498 11661,7471 11652,7440 11652,7409 11652,7378 11661,7346 11676,7319 11692,7292 11714,7270 11741,7254 11768,7239 11800,7230 11831,7230 11862,7230 11893,7239 11920,7254 11947,7270 11969,7292 11985,7319 12001,7346 12009,7378 12009,7409 Z"/>
        <path fill="none" stroke="rgb(255,255,255)" stroke-width="151" stroke-linejoin="round" d="M 11328,8388 L 12185,8245"/>
        <path fill="none" stroke="rgb(255,255,255)" stroke-width="151" stroke-linejoin="round" d="M 13862,6695 L 13291,7728"/>
        <path fill="none" stroke="rgb(255,255,255)" stroke-width="151" stroke-linejoin="round" d="M 13291,8834 L 13826,9547"/>
        <path fill="none" stroke="rgb(255,255,255)" stroke-width="151" stroke-linejoin="round" d="M 11331,8460 C 11331,8569 11303,8677 11248,8772 11193,8866 11114,8945 11019,9000 10924,9055 10817,9084 10707,9084 10598,9084 10490,9055 10395,9000 10300,8945 10221,8866 10166,8772 10111,8677 10083,8569 10083,8460 10083,8350 10111,8242 10166,8148 10221,8053 10300,7974 10395,7919 10490,7864 10598,7835 10707,7835 10817,7835 10924,7864 11019,7919 11114,7974 11193,8053 11248,8148 11303,8242 11331,8350 11331,8459 L 11331,8460 Z"/>
        <path fill="none" stroke="rgb(255,255,255)" stroke-width="151" stroke-linejoin="round" d="M 13577,8228 C 13577,8353 13544,8476 13482,8585 13419,8693 13329,8783 13221,8846 13112,8908 12989,8941 12864,8941 12739,8941 12615,8908 12507,8846 12399,8783 12309,8693 12246,8585 12183,8476 12151,8353 12151,8228 12151,8103 12183,7979 12246,7871 12309,7763 12399,7673 12507,7610 12615,7547 12739,7515 12864,7515 12989,7515 13112,7547 13221,7610 13329,7673 13419,7763 13482,7871 13544,7979 13577,8103 13577,8228 L 13577,8228 Z"/>
        <path fill="none" stroke="rgb(255,255,255)" stroke-width="151" stroke-linejoin="round" d="M 14861,6178 C 14861,6287 14832,6395 14777,6490 14722,6585 14643,6664 14548,6719 14454,6774 14346,6802 14237,6802 14127,6802 14019,6774 13924,6719 13830,6664 13751,6585 13696,6490 13641,6395 13612,6287 13612,6178 13612,6069 13641,5961 13696,5866 13751,5771 13830,5692 13924,5637 14019,5582 14127,5554 14237,5554 14346,5554 14454,5582 14548,5637 14643,5692 14722,5771 14777,5866 14832,5961 14861,6069 14861,6178 L 14861,6178 Z"/>
        <path fill="none" stroke="rgb(255,255,255)" stroke-width="151" stroke-linejoin="round" d="M 14504,9886 C 14504,9964 14483,10041 14444,10108 14405,10176 14349,10232 14281,10272 14213,10311 14136,10332 14059,10332 13980,10332 13903,10311 13835,10272 13768,10232 13711,10176 13672,10108 13633,10041 13612,9964 13612,9886 13612,9807 13633,9730 13672,9663 13711,9595 13768,9539 13835,9499 13903,9460 13980,9440 14059,9440 14136,9440 14213,9460 14281,9499 14349,9539 14405,9595 14444,9663 14483,9730 14504,9807 14504,9886 Z"/>
       </g>
      </g>
     </g>
    </g>
   </g>
  </g>
 </g>
</svg>